<svg xmlns="http://www.w3.org/2000/svg" xmlns:xlink="http://www.w3.org/1999/xlink" width="500" zoomAndPan="magnify" viewBox="0 0 375 374.999991" height="500" preserveAspectRatio="xMidYMid meet" version="1.2"><g id="efd621740f"><path style=" stroke:none;fill-rule:evenodd;fill:#070808;fill-opacity:1;" d="M 177.0625 41.609375 C 88.921875 48.648438 28.15625 126.910156 43.390625 213.765625 C 61.144531 314.96875 177.550781 366.785156 265.03125 312.429688 C 354.914062 256.578125 357.519531 124.707031 269.898438 66.039062 C 243.4375 48.324219 208.414062 39.105469 177.0625 41.609375 M 236.042969 111.890625 C 246.390625 113.695312 257.039062 120.335938 262.839844 128.601562 L 264.019531 130.285156 L 257.347656 134.488281 C 253.675781 136.800781 250.488281 138.792969 250.261719 138.917969 C 250.039062 139.042969 248.460938 137.769531 246.761719 136.089844 C 232.671875 122.191406 209.203125 128.273438 205.199219 146.855469 C 204.207031 151.464844 204.1875 181.480469 205.175781 185.683594 C 207.964844 197.542969 218.867188 204.105469 231.738281 201.660156 C 243.128906 199.496094 248.632812 191.9375 248.652344 178.4375 L 248.65625 173.21875 L 230.347656 173.21875 L 230.347656 156.1875 L 247.648438 156.273438 L 264.953125 156.355469 L 265.1875 161.03125 C 266.539062 188.183594 263.941406 198.921875 253.6875 208.578125 C 230.984375 229.96875 192.578125 217.167969 188.242188 186.769531 C 187.539062 181.839844 187.921875 145.65625 188.710938 142.410156 C 193.992188 120.6875 213.683594 107.992188 236.042969 111.890625 M 177.152344 150.605469 C 177.039062 188.746094 177.03125 189.179688 176.25 192.078125 C 173.300781 203.015625 166.636719 211.015625 156.519531 215.757812 C 135.539062 225.589844 111.089844 210.710938 109.265625 187 L 109.023438 183.824219 L 117.222656 183.921875 L 125.425781 184.019531 L 125.675781 186.046875 C 128.035156 204.921875 153.023438 207.277344 159.609375 189.246094 L 160.582031 186.585938 L 160.6875 158.109375 L 160.796875 129.636719 L 137.328125 129.636719 L 137.328125 112.058594 L 177.269531 112.058594 L 177.152344 150.605469 M 105.351562 243.015625 C 111.433594 247.53125 107.777344 255.980469 99.738281 255.980469 L 97.046875 255.980469 L 97.046875 241.996094 L 100.683594 242.121094 C 103.671875 242.226562 104.503906 242.386719 105.351562 243.015625 M 121.214844 242.980469 C 121.214844 243.894531 121.203125 243.894531 117.738281 243.894531 L 114.257812 243.894531 L 114.257812 247.925781 L 117.003906 247.925781 C 119.691406 247.925781 119.75 247.945312 119.75 248.839844 C 119.75 249.734375 119.691406 249.753906 117.003906 249.753906 L 114.257812 249.753906 L 114.257812 253.96875 L 117.734375 253.851562 L 121.214844 253.734375 L 121.214844 255.980469 L 112.058594 255.980469 L 112.058594 242.066406 L 121.214844 242.066406 L 121.214844 242.980469 M 133.3125 242.667969 C 134.296875 243.324219 135.132812 244.246094 135.132812 244.675781 C 135.132812 245.375 133.601562 245.363281 132.699219 244.652344 C 130.917969 243.25 127.441406 243.820312 127.441406 245.511719 C 127.441406 246.675781 127.957031 247.023438 130.738281 247.734375 C 135.367188 248.921875 137.15625 251.410156 135.292969 254.070312 C 133.070312 257.246094 125.246094 256.015625 125.246094 252.492188 C 125.246094 251.910156 127.191406 251.386719 127.371094 251.921875 C 128.042969 253.9375 131.460938 254.890625 132.890625 253.460938 C 134.554688 251.800781 133.800781 250.636719 130.511719 249.792969 C 126.289062 248.707031 125.273438 247.914062 125.253906 245.671875 C 125.230469 242.703125 130.441406 240.757812 133.3125 242.667969 M 148.484375 248.472656 C 149.753906 251.898438 150.910156 254.988281 151.054688 255.339844 C 151.28125 255.878906 151.121094 255.980469 150.066406 255.980469 C 148.886719 255.980469 148.777344 255.875 148.269531 254.242188 L 147.730469 252.503906 L 145.128906 252.394531 L 142.523438 252.289062 L 141.914062 254.132812 C 141.355469 255.804688 141.195312 255.980469 140.203125 255.980469 C 138.890625 255.980469 138.753906 256.648438 141.722656 248.539062 C 144.996094 239.609375 145.207031 239.609375 148.484375 248.472656 M 163.910156 243.277344 C 165.527344 245.15625 164.703125 249.753906 162.753906 249.753906 C 162.027344 249.753906 162.050781 249.824219 163.695312 252.824219 C 165.445312 256.015625 165.441406 255.980469 164.085938 255.980469 C 163.121094 255.980469 162.855469 255.6875 161.433594 253.050781 C 159.890625 250.191406 159.820312 250.125 158.476562 250.121094 L 157.105469 250.121094 L 157.105469 255.980469 L 154.90625 255.980469 L 154.90625 242 L 158.96875 242.125 C 162.894531 242.246094 163.058594 242.28125 163.910156 243.277344 M 177.746094 242.570312 C 180.566406 243.75 180.421875 248.882812 177.539062 249.84375 C 177.257812 249.933594 177.65625 250.988281 178.640625 252.785156 C 180.484375 256.140625 180.472656 256.054688 178.984375 255.914062 C 177.90625 255.808594 177.660156 255.535156 176.332031 252.960938 C 174.898438 250.1875 174.835938 250.125 173.492188 250.125 L 172.121094 250.121094 L 172.121094 255.980469 L 169.921875 255.980469 L 169.921875 242.066406 L 173.230469 242.066406 C 175.210938 242.066406 177.023438 242.269531 177.746094 242.570312 M 193.378906 242.890625 C 197.152344 245.433594 197.144531 252.589844 193.363281 255.15625 C 187.136719 259.390625 180.550781 249.828125 185.578125 243.851562 C 187.28125 241.828125 191.101562 241.359375 193.378906 242.890625 M 202.515625 247.925781 L 202.515625 253.785156 L 209.472656 253.785156 L 209.472656 255.980469 L 200.316406 255.980469 L 200.316406 242.066406 L 202.515625 242.066406 L 202.515625 247.925781 M 215.332031 247.925781 L 215.332031 253.785156 L 222.289062 253.785156 L 222.289062 256.003906 L 217.804688 255.902344 L 213.316406 255.796875 L 213.21875 248.929688 L 213.117188 242.066406 L 215.332031 242.066406 L 215.332031 247.925781 M 234.796875 248.839844 C 237.703125 256.609375 237.601562 256.054688 236.128906 255.914062 C 235.082031 255.8125 234.898438 255.613281 234.417969 254.058594 L 233.878906 252.320312 L 228.644531 252.320312 L 228.105469 254.058594 C 227.625 255.613281 227.441406 255.8125 226.394531 255.914062 C 224.9375 256.054688 224.800781 256.804688 227.636719 249.140625 C 230.503906 241.402344 230.1875 241.996094 231.375 242.136719 C 232.257812 242.238281 232.519531 242.753906 234.796875 248.839844 M 248.410156 242.566406 C 255.789062 245.648438 252.410156 255.980469 244.023438 255.980469 L 240.964844 255.980469 L 240.964844 242.066406 L 244.089844 242.066406 C 245.902344 242.066406 247.71875 242.273438 248.410156 242.566406 M 265.527344 243.058594 C 270.632812 247.351562 267.878906 256.292969 261.574219 255.90625 C 253.347656 255.398438 253.808594 242.066406 262.050781 242.066406 C 264.015625 242.066406 264.519531 242.210938 265.527344 243.058594 M 280.160156 242.617188 C 282.695312 243.929688 282.515625 249.753906 279.941406 249.753906 C 279.214844 249.753906 279.238281 249.824219 280.882812 252.824219 C 282.632812 256.015625 282.628906 255.980469 281.273438 255.980469 C 280.308594 255.980469 280.046875 255.691406 278.640625 253.050781 C 277.109375 250.175781 277.054688 250.121094 275.6875 250.121094 L 274.292969 250.121094 L 274.292969 255.980469 L 272.09375 255.980469 L 272.09375 242.066406 L 275.59375 242.066406 C 277.996094 242.066406 279.421875 242.238281 280.160156 242.617188 M 99.242188 248.945312 L 99.242188 253.992188 L 101.484375 253.78125 C 107.953125 253.160156 107.414062 243.894531 100.910156 243.894531 L 99.242188 243.894531 L 99.242188 248.945312 M 157.105469 246.09375 L 157.105469 248.292969 L 159.230469 248.292969 C 161.804688 248.292969 162.628906 247.769531 162.675781 246.117188 C 162.726562 244.453125 161.863281 243.894531 159.230469 243.894531 L 157.105469 243.894531 L 157.105469 246.09375 M 172.121094 246.09375 L 172.121094 248.292969 L 174.15625 248.292969 C 176.867188 248.292969 177.613281 247.859375 177.613281 246.285156 C 177.613281 244.609375 176.550781 243.894531 174.050781 243.894531 L 172.121094 243.894531 L 172.121094 246.09375 M 187.910156 244.492188 C 186.117188 245.75 185.550781 248.894531 186.628906 251.59375 C 187.980469 254.96875 192.148438 254.96875 193.496094 251.59375 C 195.046875 247.71875 193.339844 243.894531 190.0625 243.894531 C 189.347656 243.894531 188.378906 244.164062 187.910156 244.492188 M 243.164062 248.945312 L 243.164062 253.992188 L 245.269531 253.78125 C 252.082031 253.09375 251.742188 243.921875 244.902344 243.902344 L 243.164062 243.894531 L 243.164062 248.945312 M 259.46875 244.769531 C 257.445312 246.792969 257.453125 250.921875 259.484375 252.960938 C 262.273438 255.761719 265.871094 253.542969 265.871094 249.023438 C 265.871094 244.746094 262.039062 242.199219 259.46875 244.769531 M 274.292969 246.09375 L 274.292969 248.292969 L 276.328125 248.292969 C 279.132812 248.292969 279.785156 247.875 279.785156 246.09375 C 279.785156 244.3125 279.132812 243.894531 276.328125 243.894531 L 274.292969 243.894531 L 274.292969 246.09375 M 144.210938 247.765625 L 143.269531 250.304688 L 144.917969 250.417969 C 147.03125 250.5625 146.988281 250.671875 146 247.738281 L 145.152344 245.226562 L 144.210938 247.765625 M 230.40625 247.550781 C 229.378906 250.59375 229.347656 250.488281 231.261719 250.488281 C 233.179688 250.488281 233.195312 250.417969 232.035156 247.386719 L 231.199219 245.203125 L 230.40625 247.550781 M 169.5 271.324219 L 170.789062 276.230469 L 171.824219 272.605469 C 172.394531 270.613281 173.03125 268.363281 173.234375 267.609375 C 173.558594 266.433594 173.761719 266.234375 174.652344 266.234375 C 175.667969 266.234375 175.710938 266.320312 177.089844 271.207031 L 178.492188 276.179688 L 179.523438 272.578125 C 180.089844 270.601562 180.71875 268.363281 180.925781 267.609375 C 181.382812 265.941406 183.699219 265.402344 183.277344 267.058594 C 181.085938 275.695312 179.503906 279.96875 178.496094 279.96875 C 177.476562 279.96875 177.4375 279.890625 176.164062 275.117188 C 174.65625 269.480469 174.683594 269.511719 173.839844 272.734375 C 172.066406 279.507812 171.796875 280.152344 170.730469 280.148438 C 169.757812 280.148438 169.707031 280.027344 167.953125 273.648438 C 166.96875 270.074219 166.078125 266.933594 165.980469 266.667969 C 165.84375 266.3125 166.121094 266.214844 167.003906 266.300781 L 168.214844 266.417969 L 169.5 271.324219 M 197.019531 267.152344 C 197.019531 268.0625 197.007812 268.066406 193.542969 268.066406 L 190.0625 268.066406 L 190.0625 272.09375 L 192.808594 272.09375 C 195.496094 272.09375 195.558594 272.113281 195.558594 273.011719 C 195.558594 273.90625 195.496094 273.925781 192.808594 273.925781 L 190.0625 273.925781 L 190.0625 278.320312 L 197.386719 278.320312 L 197.386719 280.152344 L 187.867188 280.152344 L 187.867188 266.234375 L 197.019531 266.234375 L 197.019531 267.152344 M 208.886719 266.652344 C 210.804688 267.527344 211.386719 270.578125 209.941406 272.183594 C 209.414062 272.769531 209.445312 272.882812 210.335938 273.582031 C 211.140625 274.214844 211.304688 274.640625 211.304688 276.082031 C 211.304688 279.1875 209.742188 280.152344 204.6875 280.152344 L 201.417969 280.152344 L 201.417969 266.234375 L 204.695312 266.234375 C 206.496094 266.234375 208.382812 266.421875 208.886719 266.652344 M 203.613281 270.082031 L 203.613281 272.09375 L 205.363281 272.09375 C 207.425781 272.09375 208.738281 271.3125 208.738281 270.085938 C 208.738281 268.664062 207.8125 268.066406 205.601562 268.066406 L 203.613281 268.066406 L 203.613281 270.082031 M 203.613281 276.121094 L 203.613281 278.320312 L 205.644531 278.320312 C 208.066406 278.320312 209.578125 277.214844 209.21875 275.707031 C 208.898438 274.363281 208.046875 273.925781 205.742188 273.925781 L 203.613281 273.925781 L 203.613281 276.121094 "/><path style=" stroke:none;fill-rule:evenodd;fill:#f3f2f2;fill-opacity:1;" d="M 0 187.5 L 0 375 L 375 375 L 375 0 L 0 0 L 0 187.5 M 207.277344 42.457031 C 281.023438 52.496094 334.109375 113.105469 334.148438 187.316406 C 334.203125 286.453125 239.992188 356.617188 145.128906 328.097656 C 57.8125 301.847656 15.667969 202.65625 56.933594 120.515625 C 78.542969 77.507812 122.816406 46.945312 170.472656 42.144531 C 172.6875 41.921875 175.078125 41.675781 175.78125 41.597656 C 180.011719 41.125 201.886719 41.722656 207.277344 42.457031 M 222.246094 111.71875 C 203.773438 114.433594 190.519531 127.984375 188.246094 146.476562 C 187.632812 151.480469 187.757812 182.53125 188.410156 186.859375 C 191.074219 204.539062 204.171875 216.78125 222.472656 218.691406 C 243.453125 220.875 261.558594 207.378906 264.585938 187.289062 C 265.140625 183.59375 265.402344 159.054688 264.90625 157.195312 L 264.683594 156.371094 L 230.347656 156.371094 L 230.347656 173.21875 L 248.65625 173.21875 L 248.65625 178.835938 C 248.65625 183.234375 248.5 185.066406 247.933594 187.285156 C 242.8125 207.308594 211.664062 207.375 205.492188 187.375 C 203.644531 181.382812 203.921875 149.796875 205.875 143.796875 C 211.535156 126.40625 236.558594 123.027344 248.765625 138 L 249.761719 139.222656 L 256.257812 135.105469 C 264.699219 129.753906 264.105469 130.453125 262.25 128.046875 C 252.804688 115.804688 237.355469 109.5 222.246094 111.71875 M 137.328125 121.03125 L 137.328125 129.636719 L 160.765625 129.636719 L 160.761719 157.378906 C 160.757812 180.542969 160.667969 185.496094 160.214844 187.410156 C 155.527344 207.300781 128.550781 206.019531 125.421875 185.761719 L 125.179688 184.203125 L 109.054688 184.203125 L 109.308594 186.859375 C 112.285156 218.210938 149.84375 229.980469 169.398438 205.6875 C 177.0625 196.167969 177.246094 194.816406 177.246094 148.417969 L 177.246094 112.425781 L 137.328125 112.425781 L 137.328125 121.03125 M 97.046875 248.796875 L 97.046875 255.613281 L 100.472656 255.613281 C 105.859375 255.613281 108.277344 253.28125 107.921875 248.425781 C 107.59375 243.949219 105.703125 242.355469 100.445312 242.128906 L 97.046875 241.976562 L 97.046875 248.796875 M 112.058594 248.828125 L 112.058594 255.613281 L 116.636719 255.613281 C 120.972656 255.613281 121.214844 255.578125 121.214844 254.882812 C 121.214844 254.199219 120.972656 254.152344 117.554688 254.152344 L 113.890625 254.152344 L 113.890625 249.753906 L 116.761719 249.753906 C 119.507812 249.753906 119.625 249.722656 119.566406 248.929688 C 119.507812 248.160156 119.328125 248.105469 116.789062 248.0625 L 114.074219 248.019531 L 113.855469 243.894531 L 117.535156 243.894531 C 121.140625 243.894531 121.207031 243.878906 121.085938 243.070312 C 120.964844 242.277344 120.808594 242.246094 116.511719 242.144531 L 112.058594 242.042969 L 112.058594 248.828125 M 127.582031 242.425781 C 123.445312 244.097656 124.882812 248.304688 130.003906 249.527344 C 133.210938 250.292969 133.667969 250.59375 133.667969 251.941406 C 133.667969 254.441406 129.753906 255.101562 127.925781 252.910156 C 126.304688 250.96875 124.527344 251.75 125.96875 253.773438 C 128.867188 257.84375 136.6875 255.808594 135.6875 251.25 C 135.386719 249.882812 134.0625 248.789062 132.0625 248.253906 C 127.476562 247.027344 126.589844 246.339844 127.605469 244.792969 C 128.59375 243.28125 131.179688 243.214844 132.761719 244.660156 C 133.460938 245.296875 135.132812 245.292969 135.132812 244.648438 C 135.132812 244.289062 133.648438 242.976562 132.683594 242.476562 C 131.757812 242 128.710938 241.96875 127.582031 242.425781 M 144.101562 242.523438 C 144.007812 242.773438 142.882812 245.824219 141.59375 249.296875 L 139.253906 255.613281 L 140.277344 255.613281 C 141.179688 255.613281 141.371094 255.398438 141.914062 253.769531 L 142.523438 251.921875 L 145.128906 252.027344 L 147.730469 252.136719 L 148.261719 253.84375 C 148.71875 255.320312 150.878906 256.816406 150.878906 255.652344 C 150.878906 253.917969 145.863281 242.066406 145.125 242.066406 C 144.652344 242.066406 144.191406 242.273438 144.101562 242.523438 M 155.199219 248.839844 L 155.089844 255.617188 L 156.097656 255.617188 L 157.105469 255.613281 L 157.105469 250.121094 L 158.574219 250.121094 C 160.035156 250.121094 160.046875 250.132812 161.398438 252.867188 C 162.660156 255.417969 162.839844 255.613281 163.914062 255.613281 L 165.070312 255.613281 L 163.660156 252.960938 C 162.007812 249.851562 162.015625 249.875 162.96875 249.570312 C 164.589844 249.054688 165.292969 245.925781 164.246094 243.894531 C 163.554688 242.558594 161.917969 242.070312 158.128906 242.066406 L 155.304688 242.066406 L 155.199219 248.839844 M 170.210938 248.839844 L 170.105469 255.617188 L 171.113281 255.617188 L 172.121094 255.613281 L 172.121094 250.121094 L 173.585938 250.121094 C 175.050781 250.121094 175.058594 250.132812 176.414062 252.867188 C 177.617188 255.300781 177.890625 255.613281 178.792969 255.613281 C 180.070312 255.613281 180.074219 255.644531 178.472656 252.679688 L 177.140625 250.207031 L 178.3125 249.15625 C 181.964844 245.894531 179.273438 242.066406 173.324219 242.066406 L 170.320312 242.066406 L 170.210938 248.839844 M 187.179688 242.691406 C 184.96875 243.78125 183.597656 247.035156 184.027344 250.167969 C 185 257.246094 193.808594 258.097656 195.78125 251.308594 C 197.554688 245.207031 192.449219 240.09375 187.179688 242.691406 M 200.683594 248.839844 L 200.683594 255.613281 L 205.078125 255.613281 C 209.226562 255.613281 209.472656 255.574219 209.472656 254.882812 C 209.472656 254.203125 209.226562 254.152344 205.992188 254.152344 L 202.515625 254.152344 L 202.515625 242.066406 L 200.683594 242.066406 L 200.683594 248.839844 M 213.5 248.839844 L 213.5 255.613281 L 217.894531 255.613281 C 222.046875 255.613281 222.289062 255.574219 222.289062 254.882812 C 222.289062 254.203125 222.046875 254.152344 218.8125 254.152344 L 215.332031 254.152344 L 215.332031 242.066406 L 213.5 242.066406 L 213.5 248.839844 M 229.761719 243.804688 C 229.410156 244.761719 228.257812 247.820312 227.207031 250.601562 L 225.296875 255.65625 L 226.402344 255.542969 C 227.339844 255.449219 227.597656 255.183594 228.113281 253.785156 L 228.71875 252.136719 L 233.804688 252.136719 L 234.410156 253.785156 C 234.921875 255.175781 235.1875 255.449219 236.109375 255.542969 L 237.195312 255.652344 L 234.855469 249.316406 C 233.566406 245.832031 232.441406 242.773438 232.355469 242.523438 C 231.941406 241.300781 230.410156 242.054688 229.761719 243.804688 M 241.324219 242.113281 C 241.320312 242.1875 241.277344 245.253906 241.234375 248.929688 L 241.148438 255.613281 L 244.484375 255.613281 C 249.671875 255.613281 251.671875 253.898438 251.871094 249.28125 C 252.078125 244.378906 250.046875 242.390625 244.5625 242.128906 C 242.785156 242.046875 241.328125 242.039062 241.324219 242.113281 M 259.460938 242.417969 C 255.175781 244.214844 254.675781 252.074219 258.664062 255.03125 C 261.21875 256.925781 265.730469 255.738281 267.195312 252.785156 C 270.132812 246.878906 265.054688 240.078125 259.460938 242.417969 M 272.386719 248.796875 L 272.277344 255.617188 L 273.285156 255.617188 L 274.292969 255.613281 L 274.292969 250.121094 L 275.761719 250.121094 C 277.222656 250.121094 277.234375 250.132812 278.585938 252.867188 C 279.847656 255.417969 280.027344 255.613281 281.101562 255.613281 L 282.257812 255.613281 L 280.847656 252.960938 C 279.195312 249.851562 279.203125 249.875 280.15625 249.570312 C 281.660156 249.09375 282.460938 246.078125 281.589844 244.167969 C 280.921875 242.699219 279.824219 242.296875 276.046875 242.132812 L 272.492188 241.980469 L 272.386719 248.796875 M 264.363281 244.421875 C 265.585938 245.175781 266.386719 248.472656 265.878906 250.671875 C 264.941406 254.730469 259.875 255.445312 258.324219 251.734375 C 256.289062 246.871094 260.359375 241.945312 264.363281 244.421875 M 104.179688 244.691406 C 108.203125 247.851562 105.910156 254.152344 100.738281 254.152344 L 99.28125 254.152344 L 99.171875 249.023438 L 99.058594 243.894531 L 101.117188 243.894531 C 102.671875 243.894531 103.417969 244.089844 104.179688 244.691406 M 162.394531 244.710938 C 163.84375 246.78125 162.703125 248.167969 159.394531 248.347656 L 157.101562 248.472656 L 157.101562 246.1875 L 157.105469 243.894531 L 159.464844 243.894531 C 161.488281 243.894531 161.90625 244.011719 162.394531 244.710938 M 176.863281 244.253906 C 179.289062 245.550781 177.78125 248.183594 174.511719 248.351562 L 172.117188 248.472656 L 172.117188 246.1875 L 172.121094 243.894531 L 174.15625 243.894531 C 175.277344 243.894531 176.496094 244.054688 176.863281 244.253906 M 192.808594 244.996094 C 194.753906 247.027344 194.496094 251.738281 192.34375 253.429688 C 190.414062 254.949219 187.410156 254.023438 186.40625 251.601562 C 184.925781 248.019531 186.882812 243.894531 190.0625 243.894531 C 191.46875 243.894531 191.9375 244.085938 192.808594 244.996094 M 247.972656 244.46875 C 252.394531 246.757812 249.910156 254.148438 244.71875 254.148438 L 243.164062 254.152344 L 243.164062 243.894531 L 245.015625 243.894531 C 246.03125 243.894531 247.363281 244.15625 247.972656 244.46875 M 279.582031 244.710938 C 281.019531 246.765625 279.894531 248.136719 276.582031 248.363281 L 274.292969 248.519531 L 274.292969 243.894531 L 276.652344 243.894531 C 278.675781 243.894531 279.09375 244.011719 279.582031 244.710938 M 146.054688 247.648438 C 147.097656 250.617188 147.144531 250.488281 144.980469 250.488281 C 143.636719 250.488281 143.160156 250.359375 143.285156 250.03125 C 143.378906 249.777344 143.765625 248.625 144.148438 247.46875 C 145.007812 244.847656 145.070312 244.851562 146.054688 247.648438 M 232.347656 248.035156 L 233.269531 250.488281 L 231.21875 250.488281 C 229.414062 250.488281 229.199219 250.410156 229.421875 249.847656 C 229.5625 249.496094 230.007812 248.328125 230.414062 247.257812 C 230.820312 246.1875 231.210938 245.371094 231.289062 245.449219 C 231.363281 245.523438 231.839844 246.6875 232.347656 248.035156 M 167.359375 271.085938 C 170.007812 280.546875 169.855469 280.152344 170.785156 280.152344 C 171.558594 280.152344 171.75 279.71875 173.0625 275.023438 C 173.847656 272.203125 174.574219 269.898438 174.679688 269.898438 C 174.78125 269.898438 175.34375 271.671875 175.929688 273.835938 C 176.515625 276 177.140625 278.304688 177.320312 278.960938 C 177.691406 280.3125 179.238281 280.6875 179.582031 279.511719 C 179.6875 279.160156 180.457031 276.480469 181.296875 273.558594 C 182.136719 270.640625 182.960938 267.796875 183.121094 267.242188 C 183.398438 266.316406 183.339844 266.234375 182.414062 266.234375 C 181.433594 266.234375 181.371094 266.367188 180.003906 271.214844 C 179.203125 274.054688 178.488281 275.984375 178.339844 275.703125 C 178.199219 275.429688 177.527344 273.1875 176.84375 270.722656 C 175.121094 264.511719 174.203125 264.320312 172.714844 269.863281 C 172.175781 271.855469 171.519531 274.121094 171.25 274.898438 L 170.761719 276.304688 L 170.1875 274.292969 C 169.871094 273.183594 169.242188 270.917969 168.792969 269.257812 C 168.027344 266.421875 167.914062 266.234375 166.988281 266.234375 L 166 266.234375 L 167.359375 271.085938 M 187.867188 273.191406 L 187.867188 280.152344 L 197.019531 280.152344 L 197.019531 279.234375 C 197.019531 278.320312 197.015625 278.320312 193.453125 278.320312 L 189.878906 278.320312 L 189.878906 273.925781 L 192.71875 273.925781 C 195.5 273.925781 195.558594 273.910156 195.558594 273.011719 C 195.558594 272.113281 195.5 272.09375 192.71875 272.09375 L 189.878906 272.09375 L 189.878906 268.066406 L 193.453125 268.066406 C 197.015625 268.066406 197.019531 268.066406 197.019531 267.152344 L 197.019531 266.234375 L 187.867188 266.234375 L 187.867188 273.191406 M 201.679688 273.101562 L 201.757812 279.96875 L 203.875 280.082031 C 210.171875 280.429688 213.703125 276.863281 210.28125 273.613281 C 209.300781 272.683594 209.285156 272.617188 209.914062 272.003906 C 210.65625 271.28125 210.792969 269.164062 210.175781 268.011719 C 209.554688 266.851562 207.574219 266.234375 204.449219 266.234375 L 201.597656 266.234375 L 201.679688 273.101562 M 208.300781 268.503906 C 209.949219 270.15625 208.417969 272.09375 205.46875 272.09375 L 203.613281 272.09375 L 203.613281 268.066406 L 205.738281 268.066406 C 206.90625 268.066406 208.058594 268.265625 208.300781 268.503906 M 208.804688 274.53125 C 210.671875 276.222656 209.015625 278.320312 205.808594 278.320312 L 203.613281 278.320312 L 203.613281 273.925781 L 205.875 273.925781 C 207.460938 273.925781 208.332031 274.105469 208.804688 274.53125 "/><path style=" stroke:none;fill-rule:evenodd;fill:#9c9d9d;fill-opacity:1;" d="M 199.199219 122.953125 L 197.9375 124.328125 L 199.3125 123.066406 C 200.589844 121.890625 200.851562 121.582031 200.574219 121.582031 C 200.511719 121.582031 199.894531 122.199219 199.199219 122.953125 M 265.265625 174.5 C 265.265625 176.3125 265.328125 177.101562 265.40625 176.25 C 265.480469 175.398438 265.480469 173.917969 265.40625 172.953125 C 265.332031 171.992188 265.265625 172.6875 265.265625 174.5 M 113.066406 184.109375 C 115.332031 184.175781 119.042969 184.175781 121.308594 184.109375 C 123.574219 184.046875 121.71875 183.996094 117.1875 183.996094 C 112.65625 183.996094 110.800781 184.046875 113.066406 184.109375 M 155.058594 248.65625 C 155.058594 252.382812 155.113281 253.90625 155.179688 252.046875 C 155.246094 250.179688 155.246094 247.132812 155.179688 245.269531 C 155.113281 243.40625 155.058594 244.929688 155.058594 248.65625 M 170.074219 248.65625 C 170.074219 252.382812 170.128906 253.90625 170.195312 252.046875 C 170.261719 250.179688 170.261719 247.132812 170.195312 245.269531 C 170.128906 243.40625 170.074219 244.929688 170.074219 248.65625 M 200.488281 249.023438 L 200.5 255.796875 L 204.894531 255.816406 L 209.289062 255.832031 L 204.996094 255.710938 L 200.699219 255.59375 L 200.585938 248.921875 L 200.476562 242.25 L 200.488281 249.023438 M 272.246094 248.65625 C 272.246094 252.382812 272.300781 253.90625 272.367188 252.046875 C 272.433594 250.179688 272.433594 247.132812 272.367188 245.269531 C 272.300781 243.40625 272.246094 244.929688 272.246094 248.65625 M 241.117188 249.023438 C 241.117188 252.546875 241.171875 253.992188 241.238281 252.226562 C 241.308594 250.464844 241.308594 247.582031 241.238281 245.820312 C 241.171875 244.054688 241.117188 245.5 241.117188 249.023438 M 113.996094 245.910156 C 114 246.917969 114.070312 247.285156 114.15625 246.730469 C 114.238281 246.171875 114.234375 245.347656 114.148438 244.898438 C 114.0625 244.449219 113.992188 244.902344 113.996094 245.910156 M 114 251.585938 C 114 252.695312 114.070312 253.148438 114.152344 252.59375 C 114.238281 252.039062 114.238281 251.132812 114.152344 250.578125 C 114.070312 250.027344 114 250.480469 114 251.585938 M 143.1875 252.179688 C 145.375 252.453125 147.867188 252.480469 147.710938 252.226562 C 147.617188 252.078125 146.355469 251.976562 144.90625 252.007812 C 143.457031 252.039062 142.683594 252.113281 143.1875 252.179688 M 230.261719 252.21875 C 230.921875 252.300781 231.910156 252.296875 232.457031 252.214844 C 233.007812 252.132812 232.472656 252.066406 231.261719 252.066406 C 230.054688 252.070312 229.601562 252.136719 230.261719 252.21875 M 178.894531 255.613281 L 177.796875 255.894531 L 178.984375 255.9375 C 179.640625 255.960938 180.175781 255.816406 180.175781 255.613281 C 180.175781 255.414062 180.136719 255.269531 180.085938 255.292969 C 180.035156 255.316406 179.5 255.460938 178.894531 255.613281 M 98.410156 255.878906 C 99.0625 255.960938 100.214844 255.960938 100.972656 255.882812 C 101.734375 255.804688 101.203125 255.738281 99.792969 255.734375 C 98.382812 255.734375 97.761719 255.796875 98.410156 255.878906 M 114.363281 255.886719 C 115.734375 255.957031 117.875 255.957031 119.125 255.886719 C 120.375 255.816406 119.257812 255.757812 116.636719 255.757812 C 114.019531 255.757812 112.996094 255.816406 114.363281 255.886719 M 163.421875 255.867188 C 163.773438 255.960938 164.351562 255.960938 164.703125 255.867188 C 165.054688 255.773438 164.765625 255.699219 164.0625 255.699219 C 163.359375 255.699219 163.070312 255.773438 163.421875 255.867188 M 215.605469 255.886719 C 216.867188 255.957031 218.925781 255.957031 220.183594 255.886719 C 221.441406 255.816406 220.414062 255.757812 217.894531 255.757812 C 215.378906 255.757812 214.347656 255.816406 215.605469 255.886719 M 225.679688 255.867188 C 226.03125 255.960938 226.605469 255.960938 226.960938 255.867188 C 227.3125 255.773438 227.023438 255.699219 226.316406 255.699219 C 225.613281 255.699219 225.324219 255.773438 225.679688 255.867188 M 235.566406 255.867188 C 235.917969 255.960938 236.496094 255.960938 236.847656 255.867188 C 237.199219 255.773438 236.910156 255.699219 236.207031 255.699219 C 235.5 255.699219 235.214844 255.773438 235.566406 255.867188 M 242.523438 255.882812 C 243.277344 255.960938 244.515625 255.960938 245.269531 255.882812 C 246.023438 255.804688 245.40625 255.738281 243.894531 255.738281 C 242.386719 255.738281 241.769531 255.804688 242.523438 255.882812 M 280.609375 255.867188 C 280.960938 255.960938 281.539062 255.960938 281.890625 255.867188 C 282.242188 255.773438 281.953125 255.699219 281.25 255.699219 C 280.546875 255.699219 280.257812 255.773438 280.609375 255.867188 M 201.566406 273.191406 C 201.566406 276.71875 201.621094 278.160156 201.6875 276.398438 C 201.753906 274.636719 201.753906 271.75 201.6875 269.988281 C 201.621094 268.226562 201.566406 269.667969 201.566406 273.191406 M 291.296875 291.59375 L 290.222656 292.785156 L 291.414062 291.710938 C 292.523438 290.707031 292.769531 290.40625 292.488281 290.40625 C 292.425781 290.40625 291.890625 290.941406 291.296875 291.59375 "/><path style=" stroke:none;fill-rule:evenodd;fill:#7c7c7c;fill-opacity:1;" d="M 265.246094 169.554688 C 265.246094 170.664062 265.316406 171.117188 265.398438 170.5625 C 265.484375 170.007812 265.484375 169.101562 265.398438 168.546875 C 265.316406 167.996094 265.246094 168.449219 265.246094 169.554688 "/><path style=" stroke:none;fill-rule:evenodd;fill:#7c7478;fill-opacity:1;" d="M 147.335938 112.335938 C 152.9375 112.390625 162 112.390625 167.476562 112.335938 C 172.949219 112.277344 168.367188 112.230469 157.289062 112.230469 C 146.210938 112.230469 141.730469 112.277344 147.335938 112.335938 M 265.242188 166.078125 C 265.242188 167.085938 265.316406 167.453125 265.398438 166.894531 C 265.484375 166.339844 265.480469 165.515625 265.394531 165.066406 C 265.308594 164.613281 265.238281 165.070312 265.242188 166.078125 M 265.222656 180.175781 C 265.222656 180.878906 265.296875 181.167969 265.390625 180.816406 C 265.480469 180.464844 265.480469 179.886719 265.390625 179.535156 C 265.296875 179.183594 265.222656 179.472656 265.222656 180.175781 M 213.285156 248.65625 C 213.285156 252.382812 213.339844 253.90625 213.40625 252.046875 C 213.472656 250.179688 213.472656 247.132812 213.40625 245.269531 C 213.339844 243.40625 213.285156 244.929688 213.285156 248.65625 M 100.253906 254.042969 C 100.710938 254.132812 101.367188 254.128906 101.71875 254.035156 C 102.070312 253.945312 101.695312 253.871094 100.890625 253.875 C 100.085938 253.878906 99.796875 253.957031 100.253906 254.042969 M 116.179688 254.054688 C 117.136719 254.128906 118.703125 254.128906 119.660156 254.054688 C 120.617188 253.976562 119.832031 253.917969 117.917969 253.917969 C 116.007812 253.917969 115.222656 253.976562 116.179688 254.054688 M 204.265625 254.054688 C 205.332031 254.128906 206.976562 254.128906 207.929688 254.054688 C 208.878906 253.976562 208.007812 253.917969 205.992188 253.917969 C 203.980469 253.917969 203.203125 253.980469 204.265625 254.054688 M 217.082031 254.054688 C 218.148438 254.128906 219.796875 254.128906 220.746094 254.054688 C 221.695312 253.976562 220.824219 253.917969 218.8125 253.917969 C 216.796875 253.917969 216.019531 253.980469 217.082031 254.054688 M 244.175781 254.042969 C 244.632812 254.132812 245.289062 254.128906 245.640625 254.035156 C 245.992188 253.945312 245.617188 253.871094 244.8125 253.875 C 244.007812 253.878906 243.71875 253.957031 244.175781 254.042969 "/></g></svg>